<?xml version="1.0" encoding="UTF-8" standalone="no"?>
<svg
   xmlns:dc="http://purl.org/dc/elements/1.1/"
   xmlns:cc="http://creativecommons.org/ns#"
   xmlns:rdf="http://www.w3.org/1999/02/22-rdf-syntax-ns#"
   xmlns:svg="http://www.w3.org/2000/svg"
   xmlns="http://www.w3.org/2000/svg"
   id="svg935"
   version="1.1"
   viewBox="0 0 35.979019 31.342764"
   height="31.342764mm"
   width="35.979019mm">
  <defs
     id="defs929" />
  <metadata
     id="metadata932">
    <rdf:RDF>
      <cc:Work
         rdf:about="">
        <dc:format>image/svg+xml</dc:format>
        <dc:type
           rdf:resource="http://purl.org/dc/dcmitype/StillImage" />
        <dc:title></dc:title>
      </cc:Work>
    </rdf:RDF>
  </metadata>
  <g
     transform="translate(-34.171205,-22.036951)"
     id="layer1">
    <g
       id="g887">
      <path
         style="fill:#ffffff;stroke-width:0.26458332"
         d="m 40.379737,24.408147 c -0.978958,0.06826 -3.488266,1.551517 -3.593041,2.259013 -0.05636,0.381 0.744802,-0.306917 1.150143,-0.208227 0.483659,0.117739 0.848519,0.533929 0.922602,0.120385 0.27649,-1.544108 1.964003,-2.202127 1.520296,-2.171171 z"
         id="path883" />
      <path
         style="fill:#ee7000;stroke-width:0.26458332"
         d="m 42.25431,36.742228 -0.806979,3.225006 -1.210998,2.821252 0.691886,0.691092 2.82522,-1.094052 1.729582,-1.209146 0.922337,1.209146 1.44145,2.93661 1.787261,3.281892 2.075656,2.591329 2.536825,0.978959 2.133335,0.114829 1.729846,-2.245519 0.576527,-0.748771 h 1.383771 l 0.40349,-0.460375 0.230716,-0.633412 -0.346075,-0.806186 -0.05768,-0.575733 0.980282,-0.115094 0.230452,-0.863864 -0.518584,-0.8636 0.40349,-1.094053 0.806979,-0.575733 0.634206,-0.978958 -0.115358,-1.266825 -0.461169,-0.460375 -0.922337,-0.115359 -0.865188,-0.287866 -0.7493,-0.518319 0.230717,-0.806185 0.288395,-1.957652 0.980017,0.921279 2.017977,1.324504 2.133336,0.05741 0.461169,-0.460375 -1.037961,-0.921543 -1.095375,-1.612107 2.133336,-0.575997 2.017977,-1.266561 1.498864,-2.303198 0.346076,-2.475966 -0.806979,-2.936875 -1.153583,-1.784615 -2.306109,-1.900237 -2.479145,0.287866 -2.363788,0.691092 -1.210733,-0.05768 0.34581,0.575733 1.672167,0.287867 1.498864,0.115094 2.017978,0.806185 1.153054,2.245784 -0.115094,1.842558 -0.346075,1.497012 -0.922338,1.209146 -1.210997,0.172773 -1.671903,-0.8636 -1.671902,-1.957917 -2.363787,-1.957652 -2.075657,-0.575733 -1.902618,0.633412 -0.865188,0.46064 -1.383506,-0.8636 -2.998258,-0.403225 -1.729582,0.518319 -1.556808,1.209146 -1.210733,1.497012 -1.383771,1.669786 -1.441186,0.863864 -2.075656,-0.172773 -1.210733,-1.094052 V 29.71807 l 0.518583,-1.727729 0.922602,-1.439333 1.153319,-1.094052 1.902354,-0.92128 1.960563,-0.05741 2.133335,0.05741 1.498865,-0.575733 -1.729582,-0.460639 -1.671902,-0.748771 -1.78726,-0.460375 -2.017977,0.287866 -2.709863,1.036373 -1.960562,1.381919 -1.383506,2.475971 -0.345811,2.533385 -0.05768,1.439598 0.40349,1.842558 0.864922,1.727465 1.556544,1.66952 2.075656,0.518584 1.84494,-0.230452 z"
         id="path885" />
      <path
         d="m 42.823429,22.036951 c -3.887258,0.0034 -9.256183,2.597944 -8.596842,8.999538 0.705379,6.847416 5.413375,7.320227 7.24879,7.239264 -0.377296,1.710796 -0.683683,3.257021 -2.092325,4.75959 -1.975115,2.107141 4.21005,1.354137 6.281208,-0.886884 -0.191823,1.023938 -0.398727,2.492375 0.426773,3.779573 0.153723,0.239713 0.250296,-0.63791 0.442913,-0.567266 0.179916,0.06614 -0.0058,2.020093 0.99986,2.604558 0.186267,0.108479 0.328613,-0.405342 0.448204,-0.599811 0.355071,-0.576791 0.146315,2.360878 1.626659,2.953544 0.215635,0.08625 0.258233,-0.330729 0.411162,-0.497416 1.643592,3.793331 8.576469,5.180012 8.263996,1.01256 -0.149225,-0.943769 0.696648,-1.489869 1.442773,-1.142206 0.746125,0.347927 1.939925,-1.143 0.895614,-2.334948 0.960703,-0.372798 2.049199,-1.211792 1.267355,-1.788584 -1.095904,-0.763852 0.119327,-1.49225 0.821531,-2.210329 1.153583,-1.179777 0.411956,-3.355181 -0.647435,-3.054614 -0.87974,0.249766 -1.56554,-0.309563 -1.914526,-0.67654 0.109009,-0.628121 0.388673,-1.264708 0.368565,-2.060575 2.674938,3.645165 6.468534,2.065073 6.420644,1.346465 -0.04233,-0.631032 -1.188773,0.214841 -2.596092,-2.224352 2.933965,-0.329142 3.853392,-1.008327 5.407819,-4.668308 1.670579,-3.93409 -2.176727,-10.556346 -6.22591,-9.062773 -2.124605,0.783696 -3.151453,0.907256 -4.514586,0.939006 -0.357188,0.0082 0.224631,0.808831 1.173956,1.017058 1.38483,0.303742 3.235325,-0.23495 4.818063,1.310482 1.819275,1.776677 0.843227,7.09533 -1.548342,6.287293 -2.391833,-0.807772 -2.989262,-3.898106 -6.084358,-5.16255 -2.021417,-0.826029 -3.637227,0.10848 -4.515379,0.856192 a 6.3349187,6.3349187 0 0 0 -0.478896,-0.399785 c -2.602707,-1.967177 -5.889625,-1.289315 -8.441002,2.459037 -2.128044,3.126316 -4.577292,2.653241 -5.310982,1.123686 -1.175543,-2.4511 1.864519,-7.131315 6.33148,-6.53415 0.968639,0.120385 3.505729,0.06932 3.551237,-0.899584 0.01879,-0.396875 -0.990335,0.110067 -2.566458,-1.101989 -0.688446,-0.529167 -1.81954,-0.81624 -3.115469,-0.814917 z m 7.923477,9.14744 c 2.56249,-0.0217 4.034896,1.374245 5.006181,1.299633 0.804334,-0.06191 1.440657,-0.641085 1.819275,-0.750358 2.250282,-0.649552 4.327261,1.089818 5.173928,3.263635 1.050925,2.700073 1.932252,3.616325 2.540529,3.754437 0.343958,0.07805 -1.104106,0.613569 -2.392627,-1.000654 -0.324909,-0.406929 -0.392113,0.697707 -1.036902,-0.08281 -0.864394,-1.046957 -0.986632,-2.452688 -1.359959,-3.525309 -0.230187,-0.661987 -0.889,-1.38086 -1.031875,-1.201473 -0.1905,0.239713 0.573088,1.463146 0.437885,2.101586 -0.734483,-0.611188 -1.704181,-0.150813 -1.9685,-0.167217 -0.232304,-0.01455 -0.326231,-0.412221 -0.3937,-0.370152 -0.0889,0.05556 -0.02355,0.270404 -0.07197,0.64479 -0.02593,0.198437 -0.175154,0.339196 -0.120915,0.536046 0.148961,0.542395 1.3335,1.735666 1.668992,2.878402 0.334433,1.137179 1.358371,2.703512 2.624667,2.284148 0.986102,-0.326761 1.292225,1.665022 0.396875,2.410089 -0.89535,0.745067 -1.958446,1.359429 -1.118394,2.160323 0.547158,0.521494 0.565679,1.2954 -0.547423,1.191948 -1.529292,-0.312208 -3.191669,0.687917 -4.27699,0.633677 -1.442508,-0.09948 -2.686314,-1.775354 -2.9845,-2.420937 -0.298714,-0.645848 -0.348721,0.322791 0.297921,1.216818 0.646642,0.894292 2.338123,2.459038 4.576498,1.564746 2.238375,-0.894292 2.983971,0.645583 2.387071,1.192213 -0.5969,0.546364 -2.9845,-0.09948 -4.029075,0.695325 -0.700088,0.53287 -0.944563,1.589616 -0.354542,2.440781 -4.262173,-0.433917 -5.42925,-4.049713 -6.034616,-8.129323 0.04895,-0.719138 -0.807773,0.572294 -0.917046,0.955146 -0.180975,0.633148 -0.936096,-3.010429 -0.766234,-3.745706 0.291571,-1.261269 -0.432593,-0.474398 -0.737658,0.135995 -0.266965,0.534459 -0.471487,-0.865187 -0.207698,-1.381125 0.682625,-1.335616 0.733425,-1.600993 0.959644,-4.483629 0.183621,-2.340769 1.406525,-2.051314 1.666875,-2.333889 0.157956,-0.171715 0.02117,-0.32094 -0.671248,-0.198967 -0.845608,0.14896 -2.338388,0.84455 -2.338388,3.477154 0,1.320271 -0.894291,2.777861 -1.159933,2.447131 -0.416983,-0.518848 -0.770202,1.814248 -0.981604,1.973263 -0.211138,0.159014 -0.228865,-0.702204 -0.66675,-0.132292 -0.52705,0.685536 -0.724165,1.260475 -2.141273,1.872192 -2.118783,0.9144 0.357188,-1.129242 0.49821,-3.005667 0.153459,-2.036233 0.780521,-6.1722 4.749271,-7.054585 1.097492,-0.243946 2.424113,-1.136121 3.505729,-1.145381 z m 8.084079,4.161102 c 0.4318,0.04075 0.936096,0.08705 1.145117,0.492918 0.360362,0.699823 0.141023,1.628511 -0.05054,2.951957 -0.100541,0.694531 -0.380206,0.139435 -0.676539,-0.981869 -0.338931,-1.283229 -1.306513,-1.441186 -1.408906,-2.050521 -0.0717,-0.427831 0.468577,-0.461962 0.990864,-0.41275 z"
         id="path887"
         style="stroke-width:0.26458332" />
      <path
         d="m 53.552812,36.138713 c 0,0.411692 -0.334168,0.745332 -0.746125,0.745332 -0.411956,0 -0.746125,-0.333375 -0.746125,-0.745067 0,-0.411692 0.334169,-0.745067 0.746125,-0.745067 0.411957,0 0.746125,0.333375 0.746125,0.745067 z"
         id="path889"
         style="stroke-width:0.26458332" />
      <path
         d="m 51.904458,37.336218 c 0.277813,0.04154 0.199231,-0.06641 0.118004,-0.164571 -1.012825,-1.222375 0.319352,-2.258219 1.838854,-1.401498 0.20955,0.118004 0.6223,-0.261938 0.197909,-0.612511 -0.06006,-0.04974 -0.07647,-0.83132 -0.197644,-0.876035 -0.121179,-0.04498 -0.111919,0.692944 -0.276225,0.674688 -0.781315,-0.192617 -1.970617,-0.06826 -2.330715,0.778404 -0.186795,0.439208 -0.121179,1.192477 0.649817,1.601523 z m 6.664854,4.624916 c 0,0 -1.897327,-2.137304 -3.737768,-1.367366 -1.840442,0.769937 -0.867305,2.879989 -0.544248,2.879989 -0.189971,-0.896673 -0.221192,-2.209271 1.069445,-2.558256 1.119188,-0.273315 2.43258,1.211792 2.885017,1.589617 0.414338,0.346075 0.794015,-0.215636 0.327554,-0.543984 z"
         id="path891"
         style="stroke-width:0.26458332" />
      <path
         d="m 56.852696,43.375597 c 0.04657,-0.234686 -0.558536,-1.715029 -1.617927,-1.430338 -1.32133,0.354542 -0.172773,1.577711 0.470164,1.139296 0.19394,-0.132292 0.246063,-0.230187 0.354542,-0.203729 0.306123,0.07408 0.370946,0.439208 0.38735,0.659606 0.02487,0.336815 0.374385,-0.0053 0.405871,-0.164835 z m 3.041914,-7.236884 c 0,0.411692 -0.334169,0.745332 -0.746125,0.745332 -0.411956,0 -0.746125,-0.333375 -0.746125,-0.745067 0,-0.411692 0.333904,-0.745067 0.746125,-0.745067 0.412221,0 0.746125,0.333375 0.746125,0.745067 z"
         id="path893"
         style="stroke-width:0.26458332" />
      <path
         style="fill:#ffffff;stroke-width:0.26458332"
         d="m 53.444862,35.804809 a 0.28548553,0.28548553 0 1 1 -0.570971,-2.64e-4 0.28548553,0.28548553 0 0 1 0.570971,2.64e-4 z m 6.350794,5.29e-4 a 0.28548562,0.28548562 0 1 0 -0.570971,5.3e-4 0.28548562,0.28548562 0 0 0 0.570971,-5.3e-4 z"
         id="path895" />
      <path
         style="fill:#2e3436;stroke-width:0.26458332"
         d="m 43.202577,22.860335 a 7.6173542,7.6173542 0 0 0 -1.071563,0.08678 c 0.956734,0.611981 -0.1651,0.583671 -0.515937,0.604308 -2.179638,0.12753 -3.795183,1.067594 -3.463396,0.988748 0.754063,-0.179123 2.027502,0.07567 1.138238,0.382588 -1.915584,0.660664 -3.485357,1.134269 -4.03225,4.994275 -0.310621,2.19022 1.218406,5.088466 1.172633,4.682066 -0.173038,-1.534848 0.467783,-2.304785 0.620183,-1.604962 0.384175,1.762125 1.290109,3.065991 2.028296,3.317875 -0.482335,-1.030817 -0.640027,-2.608528 0.07408,-1.840971 0.907256,0.975254 1.635125,1.435629 3.025775,1.376627 0,0 1.745456,-3.116792 4.416425,-3.97801 1.963209,-0.633148 -1.277937,-0.678921 0.714905,-1.14644 1.328737,-0.311943 2.940314,-0.238918 2.432843,-0.432593 -1.507596,-0.575469 -0.0095,-0.807244 1.015207,-0.687917 3.287712,0.383646 4.392083,3.254374 6.259777,1.773502 0.3429,-0.271727 0.799835,-0.887148 1.25677,-0.892175 0.456936,-0.0048 -0.231245,0.603779 0.649553,0.485775 1.326885,-0.1778 0.769408,0.221985 0.99007,0.266171 0.820209,0.164835 1.622161,0.826028 1.622161,0.826028 0,0 -3.282686,-5.55572 -6.142831,-3.674797 -0.475986,0.313002 -0.271992,0.475192 0.0971,0.299773 0.563033,-0.268023 1.898385,-0.03545 0.913606,0.10504 -1.339584,0.191029 -1.581942,1.159668 -1.581942,1.159668 -5.638535,-4.7117 -8.752681,-1.027112 -10.429875,1.285611 -1.1049,1.650999 -3.540125,3.01572 -5.151173,1.836208 -1.311539,-0.960173 -0.597958,0.859895 -1.126066,0.157691 -1.225815,-1.630626 -0.197909,-4.233333 0.445029,-5.22552 0.849577,-1.31154 1.615016,-2.134129 2.465652,-2.647156 0.850371,-0.513292 -0.750359,-0.915459 0.04022,-0.98769 0.790311,-0.07223 2.759869,-0.347398 4.741863,0.05847 0.334698,0.06879 1.263121,0.1143 1.750483,-0.147637 C 46.1122,24.06657 45.457885,22.849222 43.202841,22.860335 Z m 19.373321,9.957064 c 0,0 3.138752,1.908704 3.934619,-1.782762 0.119327,-0.553244 0.653785,0.14605 0.848518,0.553244 0.188119,0.392906 0.541603,-0.592932 0.220663,-1.380332 -0.284163,-0.697441 -0.762,-2.005806 -0.501385,-1.744398 0.5969,0.599546 0.664897,0.31168 0.439737,-0.412485 -0.224896,-0.724165 -0.743479,-1.884892 -2.585773,-2.750344 -0.863071,-0.405341 -1.654439,-0.616214 -2.524654,-0.659606 -0.870215,-0.04366 -1.819011,0.08017 -2.153179,-0.218546 0.738452,0 2.693723,-0.210344 3.58775,-0.632354 2.283619,-1.077648 8.426714,4.192588 4.646612,9.799108 -0.606425,0.899583 0.163248,-1.068917 -0.329671,-0.727604 -0.532341,0.368829 -0.963612,1.640946 -2.442897,2.031206 -0.512498,0.134937 0.325172,-0.338402 0.1778,-0.904875 -0.112448,-0.432858 -1.79123,0.523081 -3.31814,-1.170517 z"
         id="path897" />
    </g>
  </g>
</svg>